solid bottom
 facet normal  0.000000e+00 -1.000000e+00  0.000000e+00
   outer loop
     vertex  7.750948e-01  0.000000e+00  4.999981e-02
     vertex  7.500000e-01  0.000000e+00  1.000000e-01
     vertex  7.250266e-01  0.000000e+00  4.999987e-02
   endloop
 endfacet
 facet normal  0.000000e+00 -1.000000e+00  0.000000e+00
   outer loop
     vertex  6.750074e-01  0.000000e+00  4.999984e-02
     vertex  6.500000e-01  0.000000e+00  1.000000e-01
     vertex  6.250020e-01  0.000000e+00  4.999987e-02
   endloop
 endfacet
 facet normal  0.000000e+00 -1.000000e+00  0.000000e+00
   outer loop
     vertex  5.750005e-01  0.000000e+00  4.999992e-02
     vertex  5.500000e-01  0.000000e+00  1.000000e-01
     vertex  5.250001e-01  0.000000e+00  4.999995e-02
   endloop
 endfacet
 facet normal  0.000000e+00 -1.000000e+00  0.000000e+00
   outer loop
     vertex  4.750000e-01  0.000000e+00  4.999997e-02
     vertex  4.500000e-01  0.000000e+00  1.000000e-01
     vertex  4.249997e-01  0.000000e+00  4.999998e-02
   endloop
 endfacet
 facet normal  0.000000e+00 -1.000000e+00  0.000000e+00
   outer loop
     vertex  8.762260e-01  0.000000e+00  4.999996e-02
     vertex  9.000000e-01  0.000000e+00  0.000000e+00
     vertex  9.296989e-01  0.000000e+00  5.000000e-02
   endloop
 endfacet
 facet normal  0.000000e+00 -1.000000e+00  0.000000e+00
   outer loop
     vertex  7.750948e-01  0.000000e+00  4.999981e-02
     vertex  8.000000e-01  0.000000e+00  0.000000e+00
     vertex  8.253390e-01  0.000000e+00  4.999996e-02
   endloop
 endfacet
 facet normal  0.000000e+00 -1.000000e+00  0.000000e+00
   outer loop
     vertex  0.000000e+00  0.000000e+00  5.000000e-02
     vertex  0.000000e+00  0.000000e+00  0.000000e+00
     vertex  5.000000e-02  0.000000e+00  0.000000e+00
   endloop
 endfacet
 facet normal  0.000000e+00 -1.000000e+00  0.000000e+00
   outer loop
     vertex  0.000000e+00  0.000000e+00  1.000000e-01
     vertex  0.000000e+00  0.000000e+00  5.000000e-02
     vertex  5.000000e-02  0.000000e+00  1.000000e-01
   endloop
 endfacet
 facet normal  0.000000e+00 -1.000000e+00  0.000000e+00
   outer loop
     vertex  1.000000e+00  0.000000e+00  0.000000e+00
     vertex  1.000000e+00  0.000000e+00  5.000000e-02
     vertex  9.500000e-01  0.000000e+00  0.000000e+00
   endloop
 endfacet
 facet normal  0.000000e+00 -1.000000e+00  0.000000e+00
   outer loop
     vertex  1.000000e+00  0.000000e+00  5.000000e-02
     vertex  1.000000e+00  0.000000e+00  1.000000e-01
     vertex  9.500000e-01  0.000000e+00  1.000000e-01
   endloop
 endfacet
 facet normal  0.000000e+00 -1.000000e+00 -0.000000e+00
   outer loop
     vertex  5.000000e-02  0.000000e+00  1.000000e-01
     vertex  0.000000e+00  0.000000e+00  5.000000e-02
     vertex  7.030112e-02  0.000000e+00  5.000000e-02
   endloop
 endfacet
 facet normal -0.000000e+00 -1.000000e+00  0.000000e+00
   outer loop
     vertex  1.000000e-01  0.000000e+00  1.000000e-01
     vertex  5.000000e-02  0.000000e+00  1.000000e-01
     vertex  7.030112e-02  0.000000e+00  5.000000e-02
   endloop
 endfacet
 facet normal  0.000000e+00 -1.000000e+00  0.000000e+00
   outer loop
     vertex  0.000000e+00  0.000000e+00  5.000000e-02
     vertex  5.000000e-02  0.000000e+00  0.000000e+00
     vertex  7.030112e-02  0.000000e+00  5.000000e-02
   endloop
 endfacet
 facet normal  0.000000e+00 -1.000000e+00  0.000000e+00
   outer loop
     vertex  5.000000e-02  0.000000e+00  0.000000e+00
     vertex  1.000000e-01  0.000000e+00  0.000000e+00
     vertex  7.030112e-02  0.000000e+00  5.000000e-02
   endloop
 endfacet
 facet normal  0.000000e+00 -1.000000e+00  0.000000e+00
   outer loop
     vertex  1.500000e-01  0.000000e+00  0.000000e+00
     vertex  2.000000e-01  0.000000e+00  0.000000e+00
     vertex  1.746610e-01  0.000000e+00  5.000000e-02
   endloop
 endfacet
 facet normal  0.000000e+00 -1.000000e+00  0.000000e+00
   outer loop
     vertex  2.500000e-01  0.000000e+00  0.000000e+00
     vertex  3.000000e-01  0.000000e+00  0.000000e+00
     vertex  2.749737e-01  0.000000e+00  4.999999e-02
   endloop
 endfacet
 facet normal  0.000000e+00 -1.000000e+00  0.000000e+00
   outer loop
     vertex  3.500000e-01  0.000000e+00  0.000000e+00
     vertex  4.000000e-01  0.000000e+00  0.000000e+00
     vertex  3.749981e-01  0.000000e+00  4.999999e-02
   endloop
 endfacet
 facet normal  0.000000e+00 -1.000000e+00  0.000000e+00
   outer loop
     vertex  4.500000e-01  0.000000e+00  0.000000e+00
     vertex  5.000000e-01  0.000000e+00  0.000000e+00
     vertex  4.750000e-01  0.000000e+00  4.999997e-02
   endloop
 endfacet
 facet normal  0.000000e+00 -1.000000e+00  0.000000e+00
   outer loop
     vertex  5.500000e-01  0.000000e+00  0.000000e+00
     vertex  6.000000e-01  0.000000e+00  0.000000e+00
     vertex  5.750005e-01  0.000000e+00  4.999992e-02
   endloop
 endfacet
 facet normal  0.000000e+00 -1.000000e+00  0.000000e+00
   outer loop
     vertex  6.500000e-01  0.000000e+00  0.000000e+00
     vertex  7.000000e-01  0.000000e+00  0.000000e+00
     vertex  6.750074e-01  0.000000e+00  4.999984e-02
   endloop
 endfacet
 facet normal  0.000000e+00 -1.000000e+00  0.000000e+00
   outer loop
     vertex  7.500000e-01  0.000000e+00  0.000000e+00
     vertex  8.000000e-01  0.000000e+00  0.000000e+00
     vertex  7.750948e-01  0.000000e+00  4.999981e-02
   endloop
 endfacet
 facet normal  0.000000e+00 -1.000000e+00  0.000000e+00
   outer loop
     vertex  8.500000e-01  0.000000e+00  0.000000e+00
     vertex  9.000000e-01  0.000000e+00  0.000000e+00
     vertex  8.762260e-01  0.000000e+00  4.999996e-02
   endloop
 endfacet
 facet normal -0.000000e+00 -1.000000e+00  0.000000e+00
   outer loop
     vertex  1.000000e+00  0.000000e+00  5.000000e-02
     vertex  9.500000e-01  0.000000e+00  1.000000e-01
     vertex  9.296989e-01  0.000000e+00  5.000000e-02
   endloop
 endfacet
 facet normal  0.000000e+00 -1.000000e+00  0.000000e+00
   outer loop
     vertex  9.500000e-01  0.000000e+00  0.000000e+00
     vertex  1.000000e+00  0.000000e+00  5.000000e-02
     vertex  9.296989e-01  0.000000e+00  5.000000e-02
   endloop
 endfacet
 facet normal -0.000000e+00 -1.000000e+00  0.000000e+00
   outer loop
     vertex  9.500000e-01  0.000000e+00  1.000000e-01
     vertex  9.000000e-01  0.000000e+00  1.000000e-01
     vertex  9.296989e-01  0.000000e+00  5.000000e-02
   endloop
 endfacet
 facet normal -0.000000e+00 -1.000000e+00  0.000000e+00
   outer loop
     vertex  2.000000e-01  0.000000e+00  1.000000e-01
     vertex  1.500000e-01  0.000000e+00  1.000000e-01
     vertex  1.746610e-01  0.000000e+00  5.000000e-02
   endloop
 endfacet
 facet normal -0.000000e+00 -1.000000e+00  0.000000e+00
   outer loop
     vertex  3.000000e-01  0.000000e+00  1.000000e-01
     vertex  2.500000e-01  0.000000e+00  1.000000e-01
     vertex  2.749737e-01  0.000000e+00  4.999999e-02
   endloop
 endfacet
 facet normal -0.000000e+00 -1.000000e+00  0.000000e+00
   outer loop
     vertex  4.000000e-01  0.000000e+00  1.000000e-01
     vertex  3.500000e-01  0.000000e+00  1.000000e-01
     vertex  3.749981e-01  0.000000e+00  4.999999e-02
   endloop
 endfacet
 facet normal -0.000000e+00 -1.000000e+00  0.000000e+00
   outer loop
     vertex  5.000000e-01  0.000000e+00  1.000000e-01
     vertex  4.500000e-01  0.000000e+00  1.000000e-01
     vertex  4.750000e-01  0.000000e+00  4.999997e-02
   endloop
 endfacet
 facet normal -0.000000e+00 -1.000000e+00  0.000000e+00
   outer loop
     vertex  6.000000e-01  0.000000e+00  1.000000e-01
     vertex  5.500000e-01  0.000000e+00  1.000000e-01
     vertex  5.750005e-01  0.000000e+00  4.999992e-02
   endloop
 endfacet
 facet normal -0.000000e+00 -1.000000e+00  0.000000e+00
   outer loop
     vertex  7.000000e-01  0.000000e+00  1.000000e-01
     vertex  6.500000e-01  0.000000e+00  1.000000e-01
     vertex  6.750074e-01  0.000000e+00  4.999984e-02
   endloop
 endfacet
 facet normal -0.000000e+00 -1.000000e+00  0.000000e+00
   outer loop
     vertex  8.000000e-01  0.000000e+00  1.000000e-01
     vertex  7.500000e-01  0.000000e+00  1.000000e-01
     vertex  7.750948e-01  0.000000e+00  4.999981e-02
   endloop
 endfacet
 facet normal -0.000000e+00 -1.000000e+00  0.000000e+00
   outer loop
     vertex  9.000000e-01  0.000000e+00  1.000000e-01
     vertex  8.500000e-01  0.000000e+00  1.000000e-01
     vertex  8.762260e-01  0.000000e+00  4.999996e-02
   endloop
 endfacet
 facet normal  0.000000e+00 -1.000000e+00  0.000000e+00
   outer loop
     vertex  6.750074e-01  0.000000e+00  4.999984e-02
     vertex  7.000000e-01  0.000000e+00  0.000000e+00
     vertex  7.250266e-01  0.000000e+00  4.999987e-02
   endloop
 endfacet
 facet normal  0.000000e+00 -1.000000e+00 -0.000000e+00
   outer loop
     vertex  7.000000e-01  0.000000e+00  1.000000e-01
     vertex  6.750074e-01  0.000000e+00  4.999984e-02
     vertex  7.250266e-01  0.000000e+00  4.999987e-02
   endloop
 endfacet
 facet normal  0.000000e+00 -1.000000e+00  0.000000e+00
   outer loop
     vertex  7.000000e-01  0.000000e+00  0.000000e+00
     vertex  7.500000e-01  0.000000e+00  0.000000e+00
     vertex  7.250266e-01  0.000000e+00  4.999987e-02
   endloop
 endfacet
 facet normal  0.000000e+00 -1.000000e+00  0.000000e+00
   outer loop
     vertex  5.750005e-01  0.000000e+00  4.999992e-02
     vertex  6.000000e-01  0.000000e+00  0.000000e+00
     vertex  6.250020e-01  0.000000e+00  4.999987e-02
   endloop
 endfacet
 facet normal  0.000000e+00 -1.000000e+00  0.000000e+00
   outer loop
     vertex  6.000000e-01  0.000000e+00  0.000000e+00
     vertex  6.500000e-01  0.000000e+00  0.000000e+00
     vertex  6.250020e-01  0.000000e+00  4.999987e-02
   endloop
 endfacet
 facet normal  0.000000e+00 -1.000000e+00  0.000000e+00
   outer loop
     vertex  4.750000e-01  0.000000e+00  4.999997e-02
     vertex  5.000000e-01  0.000000e+00  0.000000e+00
     vertex  5.250001e-01  0.000000e+00  4.999995e-02
   endloop
 endfacet
 facet normal  0.000000e+00 -1.000000e+00  0.000000e+00
   outer loop
     vertex  5.000000e-01  0.000000e+00  0.000000e+00
     vertex  5.500000e-01  0.000000e+00  0.000000e+00
     vertex  5.250001e-01  0.000000e+00  4.999995e-02
   endloop
 endfacet
 facet normal  0.000000e+00 -1.000000e+00  0.000000e+00
   outer loop
     vertex  1.500000e-01  0.000000e+00  0.000000e+00
     vertex  1.746610e-01  0.000000e+00  5.000000e-02
     vertex  1.237740e-01  0.000000e+00  4.999999e-02
   endloop
 endfacet
 facet normal  0.000000e+00 -1.000000e+00  0.000000e+00
   outer loop
     vertex  1.000000e-01  0.000000e+00  0.000000e+00
     vertex  1.500000e-01  0.000000e+00  0.000000e+00
     vertex  1.237740e-01  0.000000e+00  4.999999e-02
   endloop
 endfacet
 facet normal -0.000000e+00 -1.000000e+00  0.000000e+00
   outer loop
     vertex  1.746610e-01  0.000000e+00  5.000000e-02
     vertex  1.500000e-01  0.000000e+00  1.000000e-01
     vertex  1.237740e-01  0.000000e+00  4.999999e-02
   endloop
 endfacet
 facet normal  0.000000e+00 -1.000000e+00  0.000000e+00
   outer loop
     vertex  3.749981e-01  0.000000e+00  4.999999e-02
     vertex  4.000000e-01  0.000000e+00  0.000000e+00
     vertex  4.249997e-01  0.000000e+00  4.999998e-02
   endloop
 endfacet
 facet normal  0.000000e+00 -1.000000e+00 -0.000000e+00
   outer loop
     vertex  4.000000e-01  0.000000e+00  1.000000e-01
     vertex  3.749981e-01  0.000000e+00  4.999999e-02
     vertex  4.249997e-01  0.000000e+00  4.999998e-02
   endloop
 endfacet
 facet normal  0.000000e+00 -1.000000e+00  0.000000e+00
   outer loop
     vertex  4.000000e-01  0.000000e+00  0.000000e+00
     vertex  4.500000e-01  0.000000e+00  0.000000e+00
     vertex  4.249997e-01  0.000000e+00  4.999998e-02
   endloop
 endfacet
 facet normal  0.000000e+00 -1.000000e+00  0.000000e+00
   outer loop
     vertex  1.746610e-01  0.000000e+00  5.000000e-02
     vertex  2.000000e-01  0.000000e+00  0.000000e+00
     vertex  2.249051e-01  0.000000e+00  4.999999e-02
   endloop
 endfacet
 facet normal  0.000000e+00 -1.000000e+00 -0.000000e+00
   outer loop
     vertex  2.000000e-01  0.000000e+00  1.000000e-01
     vertex  1.746610e-01  0.000000e+00  5.000000e-02
     vertex  2.249051e-01  0.000000e+00  4.999999e-02
   endloop
 endfacet
 facet normal  0.000000e+00 -1.000000e+00  0.000000e+00
   outer loop
     vertex  2.000000e-01  0.000000e+00  0.000000e+00
     vertex  2.500000e-01  0.000000e+00  0.000000e+00
     vertex  2.249051e-01  0.000000e+00  4.999999e-02
   endloop
 endfacet
 facet normal  0.000000e+00 -1.000000e+00  0.000000e+00
   outer loop
     vertex  4.249997e-01  0.000000e+00  4.999998e-02
     vertex  4.500000e-01  0.000000e+00  0.000000e+00
     vertex  4.750000e-01  0.000000e+00  4.999997e-02
   endloop
 endfacet
 facet normal  0.000000e+00 -1.000000e+00  0.000000e+00
   outer loop
     vertex  2.500000e-01  0.000000e+00  0.000000e+00
     vertex  2.749737e-01  0.000000e+00  4.999999e-02
     vertex  2.249051e-01  0.000000e+00  4.999999e-02
   endloop
 endfacet
 facet normal  0.000000e+00 -1.000000e+00  0.000000e+00
   outer loop
     vertex  3.500000e-01  0.000000e+00  0.000000e+00
     vertex  3.749981e-01  0.000000e+00  4.999999e-02
     vertex  3.249932e-01  0.000000e+00  4.999998e-02
   endloop
 endfacet
 facet normal  0.000000e+00 -1.000000e+00  0.000000e+00
   outer loop
     vertex  3.000000e-01  0.000000e+00  0.000000e+00
     vertex  3.500000e-01  0.000000e+00  0.000000e+00
     vertex  3.249932e-01  0.000000e+00  4.999998e-02
   endloop
 endfacet
 facet normal -0.000000e+00 -1.000000e+00  0.000000e+00
   outer loop
     vertex  3.749981e-01  0.000000e+00  4.999999e-02
     vertex  3.500000e-01  0.000000e+00  1.000000e-01
     vertex  3.249932e-01  0.000000e+00  4.999998e-02
   endloop
 endfacet
 facet normal  0.000000e+00 -1.000000e+00  0.000000e+00
   outer loop
     vertex  2.000000e-01  0.000000e+00  1.000000e-01
     vertex  2.249051e-01  0.000000e+00  4.999999e-02
     vertex  2.500000e-01  0.000000e+00  1.000000e-01
   endloop
 endfacet
 facet normal  0.000000e+00 -1.000000e+00  0.000000e+00
   outer loop
     vertex  5.500000e-01  0.000000e+00  0.000000e+00
     vertex  5.750005e-01  0.000000e+00  4.999992e-02
     vertex  5.250001e-01  0.000000e+00  4.999995e-02
   endloop
 endfacet
 facet normal  0.000000e+00 -1.000000e+00  0.000000e+00
   outer loop
     vertex  1.000000e-01  0.000000e+00  0.000000e+00
     vertex  1.237740e-01  0.000000e+00  4.999999e-02
     vertex  7.030112e-02  0.000000e+00  5.000000e-02
   endloop
 endfacet
 facet normal  0.000000e+00 -1.000000e+00  0.000000e+00
   outer loop
     vertex  6.500000e-01  0.000000e+00  0.000000e+00
     vertex  6.750074e-01  0.000000e+00  4.999984e-02
     vertex  6.250020e-01  0.000000e+00  4.999987e-02
   endloop
 endfacet
 facet normal  0.000000e+00 -1.000000e+00  0.000000e+00
   outer loop
     vertex  7.500000e-01  0.000000e+00  0.000000e+00
     vertex  7.750948e-01  0.000000e+00  4.999981e-02
     vertex  7.250266e-01  0.000000e+00  4.999987e-02
   endloop
 endfacet
 facet normal  0.000000e+00 -1.000000e+00  0.000000e+00
   outer loop
     vertex  8.500000e-01  0.000000e+00  0.000000e+00
     vertex  8.762260e-01  0.000000e+00  4.999996e-02
     vertex  8.253390e-01  0.000000e+00  4.999996e-02
   endloop
 endfacet
 facet normal  0.000000e+00 -1.000000e+00  0.000000e+00
   outer loop
     vertex  8.000000e-01  0.000000e+00  0.000000e+00
     vertex  8.500000e-01  0.000000e+00  0.000000e+00
     vertex  8.253390e-01  0.000000e+00  4.999996e-02
   endloop
 endfacet
 facet normal -0.000000e+00 -1.000000e+00  0.000000e+00
   outer loop
     vertex  8.762260e-01  0.000000e+00  4.999996e-02
     vertex  8.500000e-01  0.000000e+00  1.000000e-01
     vertex  8.253390e-01  0.000000e+00  4.999996e-02
   endloop
 endfacet
 facet normal  0.000000e+00 -1.000000e+00  0.000000e+00
   outer loop
     vertex  9.500000e-01  0.000000e+00  0.000000e+00
     vertex  9.296989e-01  0.000000e+00  5.000000e-02
     vertex  9.000000e-01  0.000000e+00  0.000000e+00
   endloop
 endfacet
 facet normal  0.000000e+00 -1.000000e+00  0.000000e+00
   outer loop
     vertex  2.749737e-01  0.000000e+00  4.999999e-02
     vertex  2.500000e-01  0.000000e+00  1.000000e-01
     vertex  2.249051e-01  0.000000e+00  4.999999e-02
   endloop
 endfacet
 facet normal  0.000000e+00 -1.000000e+00  0.000000e+00
   outer loop
     vertex  4.000000e-01  0.000000e+00  1.000000e-01
     vertex  4.249997e-01  0.000000e+00  4.999998e-02
     vertex  4.500000e-01  0.000000e+00  1.000000e-01
   endloop
 endfacet
 facet normal  0.000000e+00 -1.000000e+00  0.000000e+00
   outer loop
     vertex  2.749737e-01  0.000000e+00  4.999999e-02
     vertex  3.000000e-01  0.000000e+00  0.000000e+00
     vertex  3.249932e-01  0.000000e+00  4.999998e-02
   endloop
 endfacet
 facet normal -0.000000e+00 -1.000000e+00  0.000000e+00
   outer loop
     vertex  1.500000e-01  0.000000e+00  1.000000e-01
     vertex  1.000000e-01  0.000000e+00  1.000000e-01
     vertex  1.237740e-01  0.000000e+00  4.999999e-02
   endloop
 endfacet
 facet normal  0.000000e+00 -1.000000e+00 -0.000000e+00
   outer loop
     vertex  3.000000e-01  0.000000e+00  1.000000e-01
     vertex  2.749737e-01  0.000000e+00  4.999999e-02
     vertex  3.249932e-01  0.000000e+00  4.999998e-02
   endloop
 endfacet
 facet normal  0.000000e+00 -1.000000e+00  0.000000e+00
   outer loop
     vertex  1.237740e-01  0.000000e+00  4.999999e-02
     vertex  1.000000e-01  0.000000e+00  1.000000e-01
     vertex  7.030112e-02  0.000000e+00  5.000000e-02
   endloop
 endfacet
 facet normal -0.000000e+00 -1.000000e+00  0.000000e+00
   outer loop
     vertex  3.500000e-01  0.000000e+00  1.000000e-01
     vertex  3.000000e-01  0.000000e+00  1.000000e-01
     vertex  3.249932e-01  0.000000e+00  4.999998e-02
   endloop
 endfacet
 facet normal  0.000000e+00 -1.000000e+00 -0.000000e+00
   outer loop
     vertex  5.000000e-01  0.000000e+00  1.000000e-01
     vertex  4.750000e-01  0.000000e+00  4.999997e-02
     vertex  5.250001e-01  0.000000e+00  4.999995e-02
   endloop
 endfacet
 facet normal  0.000000e+00 -1.000000e+00 -0.000000e+00
   outer loop
     vertex  6.000000e-01  0.000000e+00  1.000000e-01
     vertex  5.750005e-01  0.000000e+00  4.999992e-02
     vertex  6.250020e-01  0.000000e+00  4.999987e-02
   endloop
 endfacet
 facet normal -0.000000e+00 -1.000000e+00  0.000000e+00
   outer loop
     vertex  5.500000e-01  0.000000e+00  1.000000e-01
     vertex  5.000000e-01  0.000000e+00  1.000000e-01
     vertex  5.250001e-01  0.000000e+00  4.999995e-02
   endloop
 endfacet
 facet normal -0.000000e+00 -1.000000e+00  0.000000e+00
   outer loop
     vertex  6.500000e-01  0.000000e+00  1.000000e-01
     vertex  6.000000e-01  0.000000e+00  1.000000e-01
     vertex  6.250020e-01  0.000000e+00  4.999987e-02
   endloop
 endfacet
 facet normal  0.000000e+00 -1.000000e+00 -0.000000e+00
   outer loop
     vertex  8.000000e-01  0.000000e+00  1.000000e-01
     vertex  7.750948e-01  0.000000e+00  4.999981e-02
     vertex  8.253390e-01  0.000000e+00  4.999996e-02
   endloop
 endfacet
 facet normal -0.000000e+00 -1.000000e+00  0.000000e+00
   outer loop
     vertex  7.500000e-01  0.000000e+00  1.000000e-01
     vertex  7.000000e-01  0.000000e+00  1.000000e-01
     vertex  7.250266e-01  0.000000e+00  4.999987e-02
   endloop
 endfacet
 facet normal  0.000000e+00 -1.000000e+00 -0.000000e+00
   outer loop
     vertex  9.000000e-01  0.000000e+00  1.000000e-01
     vertex  8.762260e-01  0.000000e+00  4.999996e-02
     vertex  9.296989e-01  0.000000e+00  5.000000e-02
   endloop
 endfacet
 facet normal -0.000000e+00 -1.000000e+00  0.000000e+00
   outer loop
     vertex  8.500000e-01  0.000000e+00  1.000000e-01
     vertex  8.000000e-01  0.000000e+00  1.000000e-01
     vertex  8.253390e-01  0.000000e+00  4.999996e-02
   endloop
 endfacet
endsolid bottom
